<?xml version="1.0" encoding="UTF-8" standalone="no"?>
<svg
   xmlns:dc="http://purl.org/dc/elements/1.1/"
   xmlns:cc="http://creativecommons.org/ns#"
   xmlns:rdf="http://www.w3.org/1999/02/22-rdf-syntax-ns#"
   xmlns:svg="http://www.w3.org/2000/svg"
   xmlns="http://www.w3.org/2000/svg"
   xmlns:sodipodi="http://sodipodi.sourceforge.net/DTD/sodipodi-0.dtd"
   xmlns:inkscape="http://www.inkscape.org/namespaces/inkscape"
   viewBox="0 0 1161.1875 425.54999"
   height="425.54999"
   width="1161.1875"
   xml:space="preserve"
   version="1.1"
   id="svg2"
   sodipodi:docname="biotm.svg"
   inkscape:version="0.92.2 (5c3e80d, 2017-08-06)"
   inkscape:export-filename="C:\Users\pengy6\Dropbox\bitmap.png"
   inkscape:export-xdpi="90.603996"
   inkscape:export-ydpi="90.603996"><sodipodi:namedview
     pagecolor="#ffffff"
     bordercolor="#666666"
     borderopacity="1"
     objecttolerance="10"
     gridtolerance="10"
     guidetolerance="10"
     inkscape:pageopacity="0"
     inkscape:pageshadow="2"
     inkscape:window-width="1280"
     inkscape:window-height="737"
     id="namedview4858"
     showgrid="false"
     fit-margin-top="0"
     fit-margin-left="0"
     fit-margin-right="0"
     fit-margin-bottom="0"
     inkscape:zoom="0.64916667"
     inkscape:cx="593.475"
     inkscape:cy="147.15"
     inkscape:window-x="-4"
     inkscape:window-y="-4"
     inkscape:window-maximized="1"
     inkscape:current-layer="svg2" /><metadata
     id="metadata8"><rdf:RDF><cc:Work
         rdf:about=""><dc:format>image/svg+xml</dc:format><dc:type
           rdf:resource="http://purl.org/dc/dcmitype/StillImage" /><dc:title></dc:title></cc:Work></rdf:RDF></metadata><defs
     id="defs6"><clipPath
       id="clipPath16"
       clipPathUnits="userSpaceOnUse"><path
         style="clip-rule:evenodd"
         id="path18"
         d="M 0,1.2207e-4 H 960 V 540.00012 H 0 Z"
         inkscape:connector-curvature="0" /></clipPath><clipPath
       id="clipPath38"
       clipPathUnits="userSpaceOnUse"><path
         style="clip-rule:evenodd"
         id="path40"
         d="M 1.4305e-5,0 H 960.00001 V 540 H 1.4305e-5 Z"
         inkscape:connector-curvature="0" /></clipPath><clipPath
       id="clipPath54"
       clipPathUnits="userSpaceOnUse"><path
         style="clip-rule:evenodd"
         id="path56"
         d="M 1.4305e-5,0 H 960.00001 V 540 H 1.4305e-5 Z"
         inkscape:connector-curvature="0" /></clipPath><clipPath
       id="clipPath70"
       clipPathUnits="userSpaceOnUse"><path
         style="clip-rule:evenodd"
         id="path72"
         d="M 1.4305e-5,0 H 960.00001 V 540 H 1.4305e-5 Z"
         inkscape:connector-curvature="0" /></clipPath><clipPath
       id="clipPath82"
       clipPathUnits="userSpaceOnUse"><path
         style="clip-rule:evenodd"
         id="path84"
         d="M 1.4305e-5,0 H 960.00001 V 540 H 1.4305e-5 Z"
         inkscape:connector-curvature="0" /></clipPath><clipPath
       id="clipPath98"
       clipPathUnits="userSpaceOnUse"><path
         style="clip-rule:evenodd"
         id="path100"
         d="M 1.4305e-5,0 H 960.00001 V 540 H 1.4305e-5 Z"
         inkscape:connector-curvature="0" /></clipPath><clipPath
       id="clipPath110"
       clipPathUnits="userSpaceOnUse"><path
         style="clip-rule:evenodd"
         id="path112"
         d="M 1.4305e-5,0 H 960.00001 V 540 H 1.4305e-5 Z"
         inkscape:connector-curvature="0" /></clipPath><clipPath
       id="clipPath126"
       clipPathUnits="userSpaceOnUse"><path
         style="clip-rule:evenodd"
         id="path128"
         d="M 1.4305e-5,0 H 960.00001 V 540 H 1.4305e-5 Z"
         inkscape:connector-curvature="0" /></clipPath><clipPath
       id="clipPath138"
       clipPathUnits="userSpaceOnUse"><path
         style="clip-rule:evenodd"
         id="path140"
         d="M 1.4305e-5,0 H 960.00001 V 540 H 1.4305e-5 Z"
         inkscape:connector-curvature="0" /></clipPath><clipPath
       id="clipPath154"
       clipPathUnits="userSpaceOnUse"><path
         style="clip-rule:evenodd"
         id="path156"
         d="M 1.4305e-5,0 H 960.00001 V 540 H 1.4305e-5 Z"
         inkscape:connector-curvature="0" /></clipPath><clipPath
       id="clipPath166"
       clipPathUnits="userSpaceOnUse"><path
         style="clip-rule:evenodd"
         id="path168"
         d="M 1.4305e-5,0 H 960.00001 V 540 H 1.4305e-5 Z"
         inkscape:connector-curvature="0" /></clipPath><clipPath
       id="clipPath182"
       clipPathUnits="userSpaceOnUse"><path
         style="clip-rule:evenodd"
         id="path184"
         d="M 1.4305e-5,0 H 960.00001 V 540 H 1.4305e-5 Z"
         inkscape:connector-curvature="0" /></clipPath><clipPath
       id="clipPath194"
       clipPathUnits="userSpaceOnUse"><path
         style="clip-rule:evenodd"
         id="path196"
         d="M 1.4305e-5,0 H 960.00001 V 540 H 1.4305e-5 Z"
         inkscape:connector-curvature="0" /></clipPath><clipPath
       id="clipPath210"
       clipPathUnits="userSpaceOnUse"><path
         style="clip-rule:evenodd"
         id="path212"
         d="M 1.4305e-5,0 H 960.00001 V 540 H 1.4305e-5 Z"
         inkscape:connector-curvature="0" /></clipPath><clipPath
       id="clipPath222"
       clipPathUnits="userSpaceOnUse"><path
         style="clip-rule:evenodd"
         id="path224"
         d="M 1.4305e-5,0 H 960.00001 V 540 H 1.4305e-5 Z"
         inkscape:connector-curvature="0" /></clipPath><clipPath
       id="clipPath238"
       clipPathUnits="userSpaceOnUse"><path
         style="clip-rule:evenodd"
         id="path240"
         d="M 1.4305e-5,0 H 960.00001 V 540 H 1.4305e-5 Z"
         inkscape:connector-curvature="0" /></clipPath><clipPath
       id="clipPath250"
       clipPathUnits="userSpaceOnUse"><path
         style="clip-rule:evenodd"
         id="path252"
         d="M 1.4305e-5,0 H 960.00001 V 540 H 1.4305e-5 Z"
         inkscape:connector-curvature="0" /></clipPath><clipPath
       id="clipPath286"
       clipPathUnits="userSpaceOnUse"><path
         style="clip-rule:evenodd"
         id="path288"
         d="M 1.4305e-5,0 H 960.00001 V 540 H 1.4305e-5 Z"
         inkscape:connector-curvature="0" /></clipPath><clipPath
       id="clipPath298"
       clipPathUnits="userSpaceOnUse"><path
         style="clip-rule:evenodd"
         id="path300"
         d="M 1.4305e-5,0 H 960.00001 V 540 H 1.4305e-5 Z"
         inkscape:connector-curvature="0" /></clipPath><clipPath
       id="clipPath310"
       clipPathUnits="userSpaceOnUse"><path
         style="clip-rule:evenodd"
         id="path312"
         d="M 1.4305e-5,0 H 960.00001 V 540 H 1.4305e-5 Z"
         inkscape:connector-curvature="0" /></clipPath><clipPath
       id="clipPath322"
       clipPathUnits="userSpaceOnUse"><path
         style="clip-rule:evenodd"
         id="path324"
         d="M 1.4305e-5,0 H 960.00001 V 540 H 1.4305e-5 Z"
         inkscape:connector-curvature="0" /></clipPath><clipPath
       id="clipPath334"
       clipPathUnits="userSpaceOnUse"><path
         style="clip-rule:evenodd"
         id="path336"
         d="M 1.4305e-5,0 H 960.00001 V 540 H 1.4305e-5 Z"
         inkscape:connector-curvature="0" /></clipPath><clipPath
       id="clipPath346"
       clipPathUnits="userSpaceOnUse"><path
         style="clip-rule:evenodd"
         id="path348"
         d="M 1.4305e-5,0 H 960.00001 V 540 H 1.4305e-5 Z"
         inkscape:connector-curvature="0" /></clipPath></defs><g
     id="g22"
     transform="matrix(1.25,0,0,-1.25,-6.525,615.9)"><path
       inkscape:connector-curvature="0"
       d="M 10.74,252.06 H 934.17"
       style="fill:none;stroke:#afabab;stroke-width:3;stroke-linecap:butt;stroke-linejoin:miter;stroke-miterlimit:10;stroke-dasharray:9, 3;stroke-dashoffset:0;stroke-opacity:1"
       id="path24" /></g><g
     id="g26"
     transform="matrix(1.25,0,0,-1.25,-6.525,615.9)"><path
       inkscape:connector-curvature="0"
       d="M 5.22,392.94 H 928.65"
       style="fill:none;stroke:#afabab;stroke-width:3;stroke-linecap:butt;stroke-linejoin:miter;stroke-miterlimit:10;stroke-dasharray:9, 3;stroke-dashoffset:0;stroke-opacity:1"
       id="path28" /></g><path
     inkscape:connector-curvature="0"
     d="m 543.9,13.075 c 0,-6.5125 5.2875,-11.8 11.8,-11.8 h 120.85 c 6.5125,0 11.8,5.2875 11.8,11.8 v 47.2 c 0,6.5125 -5.2875,11.8 -11.8,11.8 H 555.7 c -6.5125,0 -11.8,-5.2875 -11.8,-11.8 z"
     style="fill:#ffffff;fill-opacity:1;fill-rule:evenodd;stroke:none;stroke-width:1.25"
     id="path30" /><path
     inkscape:connector-curvature="0"
     d="m 543.9,13.075 c 0,-6.5125 5.2875,-11.8 11.8,-11.8 h 120.85 c 6.5125,0 11.8,5.2875 11.8,11.8 v 47.2 c 0,6.5125 -5.2875,11.8 -11.8,11.8 H 555.7 c -6.5125,0 -11.8,-5.2875 -11.8,-11.8 z"
     style="fill:none;stroke:#000000;stroke-width:2.54999995;stroke-linecap:butt;stroke-linejoin:miter;stroke-miterlimit:10;stroke-dasharray:none;stroke-opacity:1"
     id="path32" /><g
     id="g34"
     transform="matrix(1.25,0,0,-1.25,-6.525,615.9)"><g
       id="g36"
       clip-path="url(#clipPath38)"><text
         transform="matrix(1,0,0,-1,471.48,457.44)"
         style="font-variant:normal;font-weight:bold;font-size:18px;font-family:Calibri;-inkscape-font-specification:Calibri-Bold;writing-mode:lr-tb;fill:#000000;fill-opacity:1;fill-rule:nonzero;stroke:none"
         id="text42"><tspan
           x="0 9.5220003 13.95 18.378 28.044001 32.472 39.995998 48.888"
           y="0"
           id="tspan44">Clinical</tspan></text>
</g></g><path
     inkscape:connector-curvature="0"
     d="m 322.05,13.075 c 0,-6.5125 5.2875,-11.8 11.8,-11.8 h 120.7 c 6.5125,0 11.8,5.2875 11.8,11.8 v 47.2 c 0,6.5125 -5.2875,11.8 -11.8,11.8 h -120.7 c -6.5125,0 -11.8,-5.2875 -11.8,-11.8 z"
     style="fill:#ffffff;fill-opacity:1;fill-rule:evenodd;stroke:none;stroke-width:1.25"
     id="path46" /><path
     inkscape:connector-curvature="0"
     d="m 322.05,13.075 c 0,-6.5125 5.2875,-11.8 11.8,-11.8 h 120.7 c 6.5125,0 11.8,5.2875 11.8,11.8 v 47.2 c 0,6.5125 -5.2875,11.8 -11.8,11.8 h -120.7 c -6.5125,0 -11.8,-5.2875 -11.8,-11.8 z"
     style="fill:none;stroke:#000000;stroke-width:2.54999995;stroke-linecap:butt;stroke-linejoin:miter;stroke-miterlimit:10;stroke-dasharray:none;stroke-opacity:1"
     id="path48" /><g
     id="g50"
     transform="matrix(1.25,0,0,-1.25,-6.525,615.9)"><g
       id="g52"
       clip-path="url(#clipPath54)"><text
         transform="matrix(1,0,0,-1,284.57,457.44)"
         style="font-variant:normal;font-weight:bold;font-size:18px;font-family:Calibri;-inkscape-font-specification:Calibri-Bold;writing-mode:lr-tb;fill:#000000;fill-opacity:1;fill-rule:nonzero;stroke:none"
         id="text58"><tspan
           x="0 10.098 14.526 24.209999 28.638 38.375999 46.908001 51.335999 58.77 67.662003"
           y="0"
           id="tspan60">Biological</tspan></text>
</g></g><path
     inkscape:connector-curvature="0"
     d="m 81.3,189.175 c 0,-6.5125 5.28375,-11.8 11.8,-11.8 h 139.6 c 6.5125,0 11.8,5.2875 11.8,11.8 v 47.2 c 0,6.5125 -5.2875,11.8 -11.8,11.8 H 93.1 c -6.51625,0 -11.8,-5.2875 -11.8,-11.8 z"
     style="fill:#ffffff;fill-opacity:1;fill-rule:evenodd;stroke:none;stroke-width:1.25"
     id="path62" /><path
     inkscape:connector-curvature="0"
     d="m 81.3,189.175 c 0,-6.5125 5.28375,-11.8 11.8,-11.8 h 139.6 c 6.5125,0 11.8,5.2875 11.8,11.8 v 47.2 c 0,6.5125 -5.2875,11.8 -11.8,11.8 H 93.1 c -6.51625,0 -11.8,-5.2875 -11.8,-11.8 z"
     style="fill:none;stroke:#000000;stroke-width:2.54999995;stroke-linecap:butt;stroke-linejoin:miter;stroke-miterlimit:10;stroke-dasharray:none;stroke-opacity:1"
     id="path64" /><g
     id="g66"
     transform="matrix(1.25,0,0,-1.25,-6.525,615.9)"><g
       id="g68"
       clip-path="url(#clipPath70)"><text
         transform="matrix(1,0,0,-1,84.432,327.31)"
         style="font-variant:normal;font-weight:bold;font-size:18px;font-family:Calibri;-inkscape-font-specification:Calibri-Bold;writing-mode:lr-tb;fill:#000000;fill-opacity:1;fill-rule:nonzero;stroke:none"
         id="text74"><tspan
           x="0 11.862 20.754 35.388 44.495998 54.198002 58.032001 67.139999 76.734001 82.980003 87.407997 93.653999 102.186"
           y="0"
           id="tspan76">Named entity </tspan></text>
</g></g><g
     id="g78"
     transform="matrix(1.25,0,0,-1.25,-6.525,615.9)"><g
       id="g80"
       clip-path="url(#clipPath82)"><text
         transform="matrix(1,0,0,-1,93.072,305.71)"
         style="font-variant:normal;font-weight:bold;font-size:18px;font-family:Calibri;-inkscape-font-specification:Calibri-Bold;writing-mode:lr-tb;fill:#000000;fill-opacity:1;fill-rule:nonzero;stroke:none"
         id="text86"><tspan
           x="0 6.1199999 15.228 22.662001 32.346001 40.877998 50.598 55.026001 61.271999 65.592003 75.276001"
           y="0"
           id="tspan88">recognition</tspan></text>
</g></g><path
     inkscape:connector-curvature="0"
     d="m 420.9,189.175 c 0,-6.5125 5.2875,-11.8 11.8,-11.8 h 145 c 6.5125,0 11.8,5.2875 11.8,11.8 v 47.2 c 0,6.5125 -5.2875,11.8 -11.8,11.8 h -145 c -6.5125,0 -11.8,-5.2875 -11.8,-11.8 z"
     style="fill:#ffffff;fill-opacity:1;fill-rule:evenodd;stroke:none;stroke-width:1.25"
     id="path90" /><path
     inkscape:connector-curvature="0"
     d="m 420.9,189.175 c 0,-6.5125 5.2875,-11.8 11.8,-11.8 h 145 c 6.5125,0 11.8,5.2875 11.8,11.8 v 47.2 c 0,6.5125 -5.2875,11.8 -11.8,11.8 h -145 c -6.5125,0 -11.8,-5.2875 -11.8,-11.8 z"
     style="fill:none;stroke:#000000;stroke-width:2.54999995;stroke-linecap:butt;stroke-linejoin:miter;stroke-miterlimit:10;stroke-dasharray:none;stroke-opacity:1"
     id="path92" /><g
     id="g94"
     transform="matrix(1.25,0,0,-1.25,-6.525,615.9)"><g
       id="g96"
       clip-path="url(#clipPath98)"><text
         transform="matrix(1,0,0,-1,353.69,327.31)"
         style="font-variant:normal;font-weight:bold;font-size:18px;font-family:Calibri;-inkscape-font-specification:Calibri-Bold;writing-mode:lr-tb;fill:#000000;fill-opacity:1;fill-rule:nonzero;stroke:none"
         id="text102"><tspan
           x="0 9.8459997 18.954 23.382 32.147999 38.394001 42.821999 52.506001 62.172001 69.821999 78.101997 86.508003 95.508003 104.994 111.24"
           y="0"
           id="tspan104">Relation/Event </tspan></text>
</g></g><g
     id="g106"
     transform="matrix(1.25,0,0,-1.25,-6.525,615.9)"><g
       id="g108"
       clip-path="url(#clipPath110)"><text
         transform="matrix(1,0,0,-1,371.33,305.71)"
         style="font-variant:normal;font-weight:bold;font-size:18px;font-family:Calibri;-inkscape-font-specification:Calibri-Bold;writing-mode:lr-tb;fill:#000000;fill-opacity:1;fill-rule:nonzero;stroke:none"
         id="text114"><tspan
           x="0 8.8739996 17.136 23.382 29.393999 38.285999 45.810001 52.056 56.484001 66.222"
           y="0"
           id="tspan116">extraction</tspan></text>
</g></g><path
     inkscape:connector-curvature="0"
     d="m 765.75,189.175 c 0,-6.5125 5.2875,-11.8 11.8,-11.8 h 139.6 c 6.5125,0 11.8,5.2875 11.8,11.8 v 47.2 c 0,6.5125 -5.2875,11.8 -11.8,11.8 h -139.6 c -6.5125,0 -11.8,-5.2875 -11.8,-11.8 z"
     style="fill:#ffffff;fill-opacity:1;fill-rule:evenodd;stroke:none;stroke-width:1.25"
     id="path118" /><path
     inkscape:connector-curvature="0"
     d="m 765.75,189.175 c 0,-6.5125 5.2875,-11.8 11.8,-11.8 h 139.6 c 6.5125,0 11.8,5.2875 11.8,11.8 v 47.2 c 0,6.5125 -5.2875,11.8 -11.8,11.8 h -139.6 c -6.5125,0 -11.8,-5.2875 -11.8,-11.8 z"
     style="fill:none;stroke:#000000;stroke-width:2.54999995;stroke-linecap:butt;stroke-linejoin:miter;stroke-miterlimit:10;stroke-dasharray:none;stroke-opacity:1"
     id="path120" /><g
     id="g122"
     transform="matrix(1.25,0,0,-1.25,-6.525,615.9)"><g
       id="g124"
       clip-path="url(#clipPath126)"><text
         transform="matrix(1,0,0,-1,638.5,327.31)"
         style="font-variant:normal;font-weight:bold;font-size:18px;font-family:Calibri;-inkscape-font-specification:Calibri-Bold;writing-mode:lr-tb;fill:#000000;fill-opacity:1;fill-rule:nonzero;stroke:none"
         id="text130"><tspan
           x="0 4.8060002 14.4 19.799999 29.483999 35.874001 50.507999 59.273998 65.519997 69.947998 79.632004 89.297997"
           y="0"
           id="tspan132">Information </tspan></text>
</g></g><g
     id="g134"
     transform="matrix(1.25,0,0,-1.25,-6.525,615.9)"><g
       id="g136"
       clip-path="url(#clipPath138)"><text
         transform="matrix(1,0,0,-1,651.7,305.71)"
         style="font-variant:normal;font-weight:bold;font-size:18px;font-family:Calibri;-inkscape-font-specification:Calibri-Bold;writing-mode:lr-tb;fill:#000000;fill-opacity:1;fill-rule:nonzero;stroke:none"
         id="text142"><tspan
           x="0 6.1199999 15.12 21.365999 27.756001 32.183998 41.166 49.445999 58.338001"
           y="0"
           id="tspan144">retrieval</tspan></text>
</g></g><path
     inkscape:connector-curvature="0"
     d="m 64.35,365.275 c 0,-6.5125 5.28375,-11.8 11.8,-11.8 h 139.6 c 6.5125,0 11.8,5.2875 11.8,11.8 v 47.2 c 0,6.5125 -5.2875,11.8 -11.8,11.8 H 76.15 c -6.51625,0 -11.8,-5.2875 -11.8,-11.8 z"
     style="fill:#ffffff;fill-opacity:1;fill-rule:evenodd;stroke:none;stroke-width:1.25"
     id="path146" /><path
     inkscape:connector-curvature="0"
     d="m 64.35,365.275 c 0,-6.5125 5.28375,-11.8 11.8,-11.8 h 139.6 c 6.5125,0 11.8,5.2875 11.8,11.8 v 47.2 c 0,6.5125 -5.2875,11.8 -11.8,11.8 H 76.15 c -6.51625,0 -11.8,-5.2875 -11.8,-11.8 z"
     style="fill:none;stroke:#000000;stroke-width:2.54999995;stroke-linecap:butt;stroke-linejoin:miter;stroke-miterlimit:10;stroke-dasharray:none;stroke-opacity:1"
     id="path148" /><g
     id="g150"
     transform="matrix(1.25,0,0,-1.25,-6.525,615.9)"><g
       id="g152"
       clip-path="url(#clipPath154)"><text
         transform="matrix(1,0,0,-1,101.28,186.38)"
         style="font-variant:normal;font-weight:bold;font-size:18px;font-family:Calibri;-inkscape-font-specification:Calibri-Bold;writing-mode:lr-tb;fill:#000000;fill-opacity:1;fill-rule:nonzero;stroke:none"
         id="text158"><tspan
           x="0 15.606 25.290001 31.445999 41.147999"
           y="0"
           id="tspan160">Word </tspan></text>
</g></g><g
     id="g162"
     transform="matrix(1.25,0,0,-1.25,-6.525,615.9)"><g
       id="g164"
       clip-path="url(#clipPath166)"><text
         transform="matrix(1,0,0,-1,76.2,164.78)"
         style="font-variant:normal;font-weight:bold;font-size:18px;font-family:Calibri;-inkscape-font-specification:Calibri-Bold;writing-mode:lr-tb;fill:#000000;fill-opacity:1;fill-rule:nonzero;stroke:none"
         id="text170"><tspan
           x="0 9.1079998 23.742001 33.444 42.551998 52.146 61.740002 66.167999 75.834 84.293999"
           y="0"
           id="tspan172">embeddings</tspan></text>
</g></g><path
     inkscape:connector-curvature="0"
     d="m 539.85,365.275 c 0,-6.5125 5.2875,-11.8 11.8,-11.8 H 704.6 c 6.5125,0 11.8,5.2875 11.8,11.8 v 47.2 c 0,6.5125 -5.2875,11.8 -11.8,11.8 H 551.65 c -6.5125,0 -11.8,-5.2875 -11.8,-11.8 z"
     style="fill:#ffffff;fill-opacity:1;fill-rule:evenodd;stroke:none;stroke-width:1.25"
     id="path174" /><path
     inkscape:connector-curvature="0"
     d="m 539.85,365.275 c 0,-6.5125 5.2875,-11.8 11.8,-11.8 H 704.6 c 6.5125,0 11.8,5.2875 11.8,11.8 v 47.2 c 0,6.5125 -5.2875,11.8 -11.8,11.8 H 551.65 c -6.5125,0 -11.8,-5.2875 -11.8,-11.8 z"
     style="fill:none;stroke:#000000;stroke-width:2.54999995;stroke-linecap:butt;stroke-linejoin:miter;stroke-miterlimit:10;stroke-dasharray:none;stroke-opacity:1"
     id="path176" /><g
     id="g178"
     transform="matrix(1.25,0,0,-1.25,-6.525,615.9)"><g
       id="g180"
       clip-path="url(#clipPath182)"><text
         transform="matrix(1,0,0,-1,455.76,186.38)"
         style="font-variant:normal;font-weight:bold;font-size:18px;font-family:Calibri;-inkscape-font-specification:Calibri-Bold;writing-mode:lr-tb;fill:#000000;fill-opacity:1;fill-rule:nonzero;stroke:none"
         id="text186"><tspan
           x="0 9.5220003 19.205999 28.746 37.169998 46.889999 51.318001 60.984001 67.230003 71.531998 81.251999 90.917999 99.809998 104.094"
           y="0"
           id="tspan188">Convolutional </tspan></text>
</g></g><g
     id="g190"
     transform="matrix(1.25,0,0,-1.25,-6.525,615.9)"><g
       id="g192"
       clip-path="url(#clipPath194)"><text
         transform="matrix(1,0,0,-1,447.12,164.78)"
         style="font-variant:normal;font-weight:bold;font-size:18px;font-family:Calibri;-inkscape-font-specification:Calibri-Bold;writing-mode:lr-tb;fill:#000000;fill-opacity:1;fill-rule:nonzero;stroke:none"
         id="text198"><tspan
           x="0 9.7019997 18.809999 28.511999 34.506001 43.397999 47.826 51.551998 61.254002 70.253998 76.5 89.82 99.414001 105.66 114.066"
           y="0"
           id="tspan200">neural networks</tspan></text>
</g></g><path
     inkscape:connector-curvature="0"
     d="m 302.4,365.275 c 0,-6.5125 5.2875,-11.8 11.8,-11.8 h 152.95 c 6.5125,0 11.8,5.2875 11.8,11.8 v 47.2 c 0,6.5125 -5.2875,11.8 -11.8,11.8 H 314.2 c -6.5125,0 -11.8,-5.2875 -11.8,-11.8 z"
     style="fill:#ffffff;fill-opacity:1;fill-rule:evenodd;stroke:none;stroke-width:1.25"
     id="path202" /><path
     inkscape:connector-curvature="0"
     d="m 302.4,365.275 c 0,-6.5125 5.2875,-11.8 11.8,-11.8 h 152.95 c 6.5125,0 11.8,5.2875 11.8,11.8 v 47.2 c 0,6.5125 -5.2875,11.8 -11.8,11.8 H 314.2 c -6.5125,0 -11.8,-5.2875 -11.8,-11.8 z"
     style="fill:none;stroke:#000000;stroke-width:2.54999995;stroke-linecap:butt;stroke-linejoin:miter;stroke-miterlimit:10;stroke-dasharray:none;stroke-opacity:1"
     id="path204" /><g
     id="g206"
     transform="matrix(1.25,0,0,-1.25,-6.525,615.9)"><g
       id="g208"
       clip-path="url(#clipPath210)"><text
         transform="matrix(1,0,0,-1,280.85,186.38)"
         style="font-variant:normal;font-weight:bold;font-size:18px;font-family:Calibri;-inkscape-font-specification:Calibri-Bold;writing-mode:lr-tb;fill:#000000;fill-opacity:1;fill-rule:nonzero;stroke:none"
         id="text214"><tspan
           x="0 9.8459997 18.954 26.478001 36.216 42.605999 48.689999 57.798 67.283997 73.529999"
           y="0"
           id="tspan216">Recurrent </tspan></text>
</g></g><g
     id="g218"
     transform="matrix(1.25,0,0,-1.25,-6.525,615.9)"><g
       id="g220"
       clip-path="url(#clipPath222)"><text
         transform="matrix(1,0,0,-1,257.06,164.78)"
         style="font-variant:normal;font-weight:bold;font-size:18px;font-family:Calibri;-inkscape-font-specification:Calibri-Bold;writing-mode:lr-tb;fill:#000000;fill-opacity:1;fill-rule:nonzero;stroke:none"
         id="text226"><tspan
           x="0 9.7019997 18.809999 28.511999 34.506001 43.397999 47.826 51.551998 61.254002 70.253998 76.5 89.82 99.414001 105.66 114.066"
           y="0"
           id="tspan228">neural networks</tspan></text>
</g></g><path
     inkscape:connector-curvature="0"
     d="m 769.35,365.275 c 0,-6.5125 5.2875,-11.8 11.8,-11.8 h 153.1 c 6.5125,0 11.8,5.2875 11.8,11.8 v 47.2 c 0,6.5125 -5.2875,11.8 -11.8,11.8 h -153.1 c -6.5125,0 -11.8,-5.2875 -11.8,-11.8 z"
     style="fill:#ffffff;fill-opacity:1;fill-rule:evenodd;stroke:none;stroke-width:1.25"
     id="path230" /><path
     inkscape:connector-curvature="0"
     d="m 769.35,365.275 c 0,-6.5125 5.2875,-11.8 11.8,-11.8 h 153.1 c 6.5125,0 11.8,5.2875 11.8,11.8 v 47.2 c 0,6.5125 -5.2875,11.8 -11.8,11.8 h -153.1 c -6.5125,0 -11.8,-5.2875 -11.8,-11.8 z"
     style="fill:none;stroke:#000000;stroke-width:2.54999995;stroke-linecap:butt;stroke-linejoin:miter;stroke-miterlimit:10;stroke-dasharray:none;stroke-opacity:1"
     id="path232" /><g
     id="g234"
     transform="matrix(1.25,0,0,-1.25,-6.525,615.9)"><g
       id="g236"
       clip-path="url(#clipPath238)"><text
         transform="matrix(1,0,0,-1,655.75,186.38)"
         style="font-variant:normal;font-weight:bold;font-size:18px;font-family:Calibri;-inkscape-font-specification:Calibri-Bold;writing-mode:lr-tb;fill:#000000;fill-opacity:1;fill-rule:nonzero;stroke:none"
         id="text242"><tspan
           x="0 9.8459997 18.954 26.478001 36.216 42.335999 49.518002 53.945999 62.262001 71.262001"
           y="0"
           id="tspan244">Recursive </tspan></text>
</g></g><g
     id="g246"
     transform="matrix(1.25,0,0,-1.25,-6.525,615.9)"><g
       id="g248"
       clip-path="url(#clipPath250)"><text
         transform="matrix(1,0,0,-1,630.79,164.78)"
         style="font-variant:normal;font-weight:bold;font-size:18px;font-family:Calibri;-inkscape-font-specification:Calibri-Bold;writing-mode:lr-tb;fill:#000000;fill-opacity:1;fill-rule:nonzero;stroke:none"
         id="text254"><tspan
           x="0 9.7019997 18.809999 28.511999 34.506001 43.397999 47.826 51.551998 61.254002 70.253998 76.5 89.82 99.414001 105.66 114.066"
           y="0"
           id="tspan256">neural networks</tspan></text>
</g></g><path
     inkscape:connector-curvature="0"
     d="M 394.1375,72.075 162.9,177.35"
     style="fill:none;stroke:#000000;stroke-width:1.94999993;stroke-linecap:butt;stroke-linejoin:miter;stroke-miterlimit:10;stroke-dasharray:none;stroke-opacity:1"
     id="path258" /><path
     inkscape:connector-curvature="0"
     d="M 394.2,72.075 505.15,177.35"
     style="fill:none;stroke:#000000;stroke-width:1.94999993;stroke-linecap:butt;stroke-linejoin:miter;stroke-miterlimit:10;stroke-dasharray:none;stroke-opacity:1"
     id="path260" /><path
     inkscape:connector-curvature="0"
     d="M 394.2,72.075 847.35,177.35"
     style="fill:none;stroke:#000000;stroke-width:1.94999993;stroke-linecap:butt;stroke-linejoin:miter;stroke-miterlimit:10;stroke-dasharray:none;stroke-opacity:1"
     id="path262" /><path
     inkscape:connector-curvature="0"
     d="M 616.05,72.075 162.9,177.35"
     style="fill:none;stroke:#000000;stroke-width:1.94999993;stroke-linecap:butt;stroke-linejoin:miter;stroke-miterlimit:10;stroke-dasharray:none;stroke-opacity:1"
     id="path264" /><path
     inkscape:connector-curvature="0"
     d="M 616.15,72.075 505.2,177.35"
     style="fill:none;stroke:#000000;stroke-width:1.94999993;stroke-linecap:butt;stroke-linejoin:miter;stroke-miterlimit:10;stroke-dasharray:none;stroke-opacity:1"
     id="path266" /><path
     inkscape:connector-curvature="0"
     d="M 162.975,248.175 145.95,353.45"
     style="fill:none;stroke:#000000;stroke-width:1.94999993;stroke-linecap:butt;stroke-linejoin:miter;stroke-miterlimit:10;stroke-dasharray:none;stroke-opacity:1"
     id="path268" /><path
     inkscape:connector-curvature="0"
     d="M 505.175,248.175 145.95,353.45"
     style="fill:none;stroke:#000000;stroke-width:1.94999993;stroke-linecap:butt;stroke-linejoin:miter;stroke-miterlimit:10;stroke-dasharray:none;stroke-opacity:1"
     id="path270" /><path
     inkscape:connector-curvature="0"
     d="M 847.375,248.175 145.95,353.45"
     style="fill:none;stroke:#000000;stroke-width:1.94999993;stroke-linecap:butt;stroke-linejoin:miter;stroke-miterlimit:10;stroke-dasharray:none;stroke-opacity:1"
     id="path272" /><path
     inkscape:connector-curvature="0"
     d="M 390.575,353.45 162.9,248.175"
     style="fill:none;stroke:#000000;stroke-width:1.94999993;stroke-linecap:butt;stroke-linejoin:miter;stroke-miterlimit:10;stroke-dasharray:none;stroke-opacity:1"
     id="path274" /><path
     inkscape:connector-curvature="0"
     d="M 390.6,353.45 505.1125,248.175"
     style="fill:none;stroke:#000000;stroke-width:1.94999993;stroke-linecap:butt;stroke-linejoin:miter;stroke-miterlimit:10;stroke-dasharray:none;stroke-opacity:1"
     id="path276" /><path
     inkscape:connector-curvature="0"
     d="M 628.225,353.45 505.2,248.175"
     style="fill:none;stroke:#000000;stroke-width:1.94999993;stroke-linecap:butt;stroke-linejoin:miter;stroke-miterlimit:10;stroke-dasharray:none;stroke-opacity:1"
     id="path278" /><path
     inkscape:connector-curvature="0"
     d="M 628.2,353.45 847.375,248.175"
     style="fill:none;stroke:#000000;stroke-width:1.94999993;stroke-linecap:butt;stroke-linejoin:miter;stroke-miterlimit:10;stroke-dasharray:none;stroke-opacity:1"
     id="path280" /><g
     id="g282"
     transform="matrix(1.25,0,0,-1.25,-6.525,615.9)"><g
       id="g284"
       clip-path="url(#clipPath286)"><text
         transform="matrix(1,0,0,-1,792.53,457.58)"
         style="font-variant:normal;font-weight:bold;font-size:18px;font-family:Calibri;-inkscape-font-specification:Calibri-Bold;writing-mode:lr-tb;fill:#000000;fill-opacity:1;fill-rule:nonzero;stroke:none"
         id="text290"><tspan
           x="0 10.908 20.628 30.33 34.757999 39.186001 46.655998 55.296001 61.542 65.970001 75.582001 85.176003"
           y="0"
           id="tspan292">Applications</tspan></text>
</g></g><g
     id="g294"
     transform="matrix(1.25,0,0,-1.25,-6.525,615.9)"><g
       id="g296"
       clip-path="url(#clipPath298)"><text
         transform="matrix(1,0,0,-1,784.85,327.58)"
         style="font-variant:normal;font-weight:bold;font-size:18.02400017px;font-family:Calibri;-inkscape-font-specification:Calibri-Bold;writing-mode:lr-tb;fill:#000000;fill-opacity:1;fill-rule:nonzero;stroke:none"
         id="text302"><tspan
           x="0 11.877816 20.63748 26.891808 36.570698 42.590714 51.494568 55.928471 59.749561 64.183464 73.087318 82.766205 91.309586 100.98847 109.89233 118.18336 127.24944"
           y="0"
           id="tspan304">Natural language </tspan></text>
</g></g><g
     id="g306"
     transform="matrix(1.25,0,0,-1.25,-6.525,615.9)"><g
       id="g308"
       clip-path="url(#clipPath310)"><text
         transform="matrix(1,0,0,-1,784.85,305.95)"
         style="font-variant:normal;font-weight:bold;font-size:18px;font-family:Calibri;-inkscape-font-specification:Calibri-Bold;writing-mode:lr-tb;fill:#000000;fill-opacity:1;fill-rule:nonzero;stroke:none"
         id="text314"><tspan
           x="0 9.7019997 15.822 25.506001 33.084 42.192001 49.374001 56.466 60.785999 70.487999 78.893997 82.961998 89.099998 97.991997 105.174 113.58"
           y="0"
           id="tspan316">processing tasks</tspan></text>
</g></g><g
     id="g318"
     transform="matrix(1.25,0,0,-1.25,-6.525,615.9)"><g
       id="g320"
       clip-path="url(#clipPath322)"><text
         transform="matrix(1,0,0,-1,784.85,186.17)"
         style="font-variant:normal;font-weight:bold;font-size:18px;font-family:Calibri;-inkscape-font-specification:Calibri-Bold;writing-mode:lr-tb;fill:#000000;fill-opacity:1;fill-rule:nonzero;stroke:none"
         id="text326"><tspan
           x="0 11.4 20.514 29.628 39.354"
           y="0"
           id="tspan328">Deep </tspan></text>
</g></g><g
     id="g330"
     transform="matrix(1.25,0,0,-1.25,-6.525,615.9)"><g
       id="g332"
       clip-path="url(#clipPath334)"><text
         transform="matrix(1,0,0,-1,827.93,186.17)"
         style="font-variant:normal;font-weight:bold;font-size:18px;font-family:Calibri;-inkscape-font-specification:Calibri-Bold;writing-mode:lr-tb;fill:#000000;fill-opacity:1;fill-rule:nonzero;stroke:none"
         id="text338"><tspan
           x="0 4.428 13.536 22.427999 28.818001 38.484001 42.911999 52.632 61.164001"
           y="0"
           id="tspan340">learning </tspan></text>
</g></g><g
     id="g342"
     transform="matrix(1.25,0,0,-1.25,-6.525,615.9)"><g
       id="g344"
       clip-path="url(#clipPath346)"><text
         transform="matrix(1,0,0,-1,784.85,164.57)"
         style="font-variant:normal;font-weight:bold;font-size:18px;font-family:Calibri;-inkscape-font-specification:Calibri-Bold;writing-mode:lr-tb;fill:#000000;fill-opacity:1;fill-rule:nonzero;stroke:none"
         id="text350"><tspan
           x="0 14.634 24.318001 34.056 43.164001 47.591999"
           y="0"
           id="tspan352">models</tspan></text>
</g></g><path
     inkscape:connector-curvature="0"
     d="M 857.7625,353.45 505.2,248.175"
     style="fill:none;stroke:#000000;stroke-width:1.94999993;stroke-linecap:butt;stroke-linejoin:miter;stroke-miterlimit:10;stroke-dasharray:none;stroke-opacity:1"
     id="path354" /></svg>